<svg xmlns="http://www.w3.org/2000/svg" viewBox="0 0 789.38 982.75"><defs><style>.cls-1{fill:#fbb03b;}.cls-2{fill:#f8ae9d;}.cls-3{fill:#c3eaed;}.cls-4{fill:#fcee21;}.cls-5{fill:#fff;}.cls-6{fill:#ef4d4e;}.cls-7{fill:#31b78d;}.cls-8{fill:#299b75;}.cls-9{fill:#c43356;}.cls-10{fill:#1b7a58;}.cls-11{fill:#190d3a;}</style></defs><title>With_Orange_No_Text</title><g id="Layer_4" data-name="Layer 4"><path class="cls-1" d="M880.06,1145H468.48a76.68,76.68,0,0,1-75.21-91.61L549.19,267.87a76.68,76.68,0,0,1,75.21-61.75H1036a76.68,76.68,0,0,1,75.21,91.61L955.27,1083.29A76.67,76.67,0,0,1,880.06,1145Z" transform="translate(-323.31 -206.12)"/></g><g id="Layer_3" data-name="Layer 3"><path class="cls-2" d="M793.92,673.24a66.18,66.18,0,0,0,13.46,1c-.82-5.68-4.87-18.21-7.47-24.31-2,.64-4.42,1.52-6.27,2.24,0,1.49,0,3.5,0,5.82,0,0,0,.08,0,.12s0,.07,0,.1C793.64,662.5,793.76,667.91,793.92,673.24Z" transform="translate(-323.31 -206.12)"/><path class="cls-2" d="M822.36,462l0,0c2.56-3,4.88-5.86,6.5-7.93a149.07,149.07,0,0,0-13.12-9.42l-17.24,23.27c3.54,3.85,7.24,7.63,9.66,9.77C811.56,474.39,817.4,467.83,822.36,462Z" transform="translate(-323.31 -206.12)"/><path class="cls-3" d="M604.46,723.37a3.2,3.2,0,0,0,3.16-3.16V692.88a3.16,3.16,0,1,0-6.31,0v27.33A3.2,3.2,0,0,0,604.46,723.37Z" transform="translate(-323.31 -206.12)"/><path class="cls-3" d="M507.54,748.58a3.2,3.2,0,0,0,3.16-3.15V698.48a3.16,3.16,0,0,0-6.32,0v46.95A3.16,3.16,0,0,0,507.54,748.58Z" transform="translate(-323.31 -206.12)"/><path class="cls-3" d="M570,826.09a3.15,3.15,0,0,0,3.15-3.15V799.47a3.16,3.16,0,1,0-6.31,0v23.47A3.16,3.16,0,0,0,570,826.09Z" transform="translate(-323.31 -206.12)"/><path class="cls-4" d="M672.38,314.46l-2.14,9.27a13,13,0,0,1,2,.42,8.68,8.68,0,0,1,2.53-.36,7.8,7.8,0,0,1,4.67,1.41l6.15-8.91,0,0,1.38-2A126.61,126.61,0,0,1,672.38,314.46Z" transform="translate(-323.31 -206.12)"/><path class="cls-1" d="M674.74,323.79a8.55,8.55,0,0,1,1.64.15l2.3-9.36q-3.15,0-6.31-.12l-2.13,9.27a12.79,12.79,0,0,1,2,.43A8.49,8.49,0,0,1,674.74,323.79Z" transform="translate(-323.31 -206.12)"/><path class="cls-4" d="M678.68,314.58l-2.3,9.36a7.32,7.32,0,0,1,3,1.26l6.14-8.91s0,0,0,0l1.37-2C684.2,314.44,681.44,314.56,678.68,314.58Z" transform="translate(-323.31 -206.12)"/><path class="cls-3" d="M779.2,726.52a3.16,3.16,0,0,0-3.16,3.15v37.77a3.16,3.16,0,1,0,6.31,0V729.67A3.15,3.15,0,0,0,779.2,726.52Z" transform="translate(-323.31 -206.12)"/><path class="cls-2" d="M524.06,555.2c-5.13-3.89-21.26-14.6-37.37-25-4,9.36-7.87,18.87-9.77,24.17,9.78,3.65,33.31,11.67,42.34,14.26A75.33,75.33,0,0,0,524.06,555.2Z" transform="translate(-323.31 -206.12)"/><path class="cls-5" d="M748.43,532.62H711.92a6.08,6.08,0,0,1-6.08-6.08V490a3.8,3.8,0,0,0-3.8-3.8H676.18a3.8,3.8,0,0,0-3.8,3.8v36.51a6.09,6.09,0,0,1-6.09,6.08h-36.5a3.8,3.8,0,0,0-3.8,3.8v25.86a3.8,3.8,0,0,0,3.8,3.8h36.5a6.09,6.09,0,0,1,6.09,6.09v36.5a3.81,3.81,0,0,0,3.8,3.81H702a3.81,3.81,0,0,0,3.8-3.81v-36.5a6.09,6.09,0,0,1,6.08-6.09h36.51a3.8,3.8,0,0,0,3.8-3.8V536.42A3.8,3.8,0,0,0,748.43,532.62Z" transform="translate(-323.31 -206.12)"/><path class="cls-6" d="M784.64,642.88c.9-.6,14.87-6.84,19.6-5.83a7.28,7.28,0,0,1,4.62,3.56A82.58,82.58,0,0,1,813.69,652H917.24a91.47,91.47,0,0,0,.58-15.5H823.91a4.57,4.57,0,0,1,0-9.13h92.82c-1.15-5.82-3.25-11.55-6.93-16.14-5.32-6.65-13.17-10-24-10.13a6.08,6.08,0,0,1-5.8-7.57c.08-.32,8.08-33.44-7.35-54.28-7.83-10.58-20.69-16.41-38.22-17.33a6.07,6.07,0,0,1-5.71-6.9c0-.23,2.63-20.21-3.31-38-12.39,14-14.44,14-17,14-2.31,0-5.8,0-22.32-18.8a6.09,6.09,0,0,1-.32-7.64l10.39-14c-7.93-1.32-17.28-.74-27.95,1.76a6.09,6.09,0,0,1-7.14-4c-.15-.44-15.8-44.7-47.22-42.35-29.22,2.19-34,26.24-34.14,27.26a6.1,6.1,0,0,1-10.21,3.32c-.94-.9-23.55-22-48.77-7.14-32.36,19.08-22.09,47-21.64,48.15a6.08,6.08,0,0,1-7.22,8.07c-.22-.06-23.92-6-39.31,6-9.27,7.19-14,19.72-14,37.23a6.09,6.09,0,0,1-6.44,6.08,38.39,38.39,0,0,0-12.78,2.11c14.31,9.68,15.27,11.16,15.81,12,1.09,1.7,3.11,4.88-2.84,19.8-4.19,10.5-6.43,11.81-8.93,12.44a5.42,5.42,0,0,1-1.41.2c-2,0-6.36-1.06-22.19-6.33a93.54,93.54,0,0,0,1.29,9.79,6.08,6.08,0,0,1-5.11,7.12c-1.12.18-22.82,4.15-31.84,35.2h69.45a4.57,4.57,0,0,1,0,9.13H462.07a114.58,114.58,0,0,0-1.66,15.5h321C781.71,644.84,782.75,644.14,784.64,642.88Zm-187.89-6.4H574.69a4.57,4.57,0,0,1,0-9.13h22.06a4.57,4.57,0,0,1,0,9.13ZM718,578.25v30.42a16,16,0,0,1-16,16H676.18a16,16,0,0,1-16-16V578.25H629.79a16,16,0,0,1-16-16V536.42a16,16,0,0,1,16-16h30.42V490a16,16,0,0,1,16-16H702a16,16,0,0,1,16,16v30.42h30.42a16,16,0,0,1,16,16v25.86a16,16,0,0,1-16,16Zm35.74,53.67a4.58,4.58,0,0,1,4.57-4.57h24.75a4.57,4.57,0,1,1,0,9.13H758.32A4.57,4.57,0,0,1,753.75,631.92Z" transform="translate(-323.31 -206.12)"/><path class="cls-7" d="M936.77,440.4l-33.16,48a6.09,6.09,0,0,1-10.94-4.82l15.27-66.25H886.66a6.1,6.1,0,0,1-5.75-8.12l8.36-23.61c-65-53-147.81-59.56-152-59.86H693.81L657.07,379a6.09,6.09,0,0,1-10.94-4.82l8.53-37a13.47,13.47,0,0,1,1.21-5.28l1.4-6.06c-103.83,1.11-180,43.89-226.49,127.26C396.25,515,391.64,578,391.41,581.49V712.87a6,6,0,0,1-.82,3l-54.65,94.42,58.68,16.84A6.1,6.1,0,0,1,399,833V955.59a32.31,32.31,0,0,0,32.32,32.31H544a40.79,40.79,0,0,1,40.79,40.79v125.25a37,37,0,0,1,12.74-2.26,35.27,35.27,0,0,1,28.14,13.42,36.21,36.21,0,0,1,56.28,0,35.26,35.26,0,0,1,28.13-13.42,36.2,36.2,0,0,1,22.06,7.35V1001.32l-63.74-63.74a14.92,14.92,0,0,1-5.83,1,15,15,0,1,1,15.45-15,14.9,14.9,0,0,1-1,5.4l55.14,55.15V811L668.37,747.2a14.74,14.74,0,0,1-9.06.57,15,15,0,1,1,18.33-17.87,14.9,14.9,0,0,1-.66,8.71l55.14,55.13V664.15H454.2a6.12,6.12,0,0,1-6.09-6.12c0-55.63,27.65-71.83,40.18-76.31a91.77,91.77,0,0,1-.81-10.66c-20.17-6.93-21.09-7.84-22-8.79-3.32-3.31-2.81-5.69,5.3-25.46,3.69-9,7.58-17.93,7.63-18a6,6,0,0,1,3.8-3.39,6.16,6.16,0,0,1,5.05.69c8.1,5.19,14.78,9.51,20.34,13.16a48,48,0,0,1,19.05-6.13c1-18.56,7.29-32.37,18.58-41.08,13.29-10.27,30.17-10.65,40.46-9.63-1.52-13,.43-36.59,28.92-53.39,21.67-12.78,43.26-5.47,56.08,3.06,5.38-11.9,18.06-26.34,42.31-28.15,33.7-2.54,51.93,32.15,57.65,45.49,12.7-2.39,23.92-2.21,33.48.5l5.27-7.12a6.11,6.11,0,0,1,8.1-1.55c.24.15,6.12,3.79,11.9,7.87,9.19,6.48,15.44,11.54,12.39,17.65-.85,1.7-4.18,5.91-7.41,9.81,7.29,15.9,7.51,34.23,7,43.71,18.24,2.16,32.07,9.46,41.15,21.76,14.16,19.18,12.52,45.07,10.66,57.4,11.08,1.52,19.87,6.28,26.2,14.2,16.27,20.4,9.36,54.24,9.06,55.67a6.09,6.09,0,0,1-5.95,4.84H817.55c1.64,6.16,2.59,11.91,1.77,15-.56,2.09-2,7.33-14.86,7.33a89.53,89.53,0,0,1-17.67-2.17,6.09,6.09,0,0,1-4.86-5.73c-.21-5.74-.37-10.49-.47-14.44H744.29V868.78l55.14-55.14a14.8,14.8,0,0,1,.06-11A15.07,15.07,0,0,1,811,793.4a14.34,14.34,0,0,1,10.68,2.42,14.92,14.92,0,0,1,6.54,9.44,15,15,0,0,1-20.16,17l-16.55,16.54L745.28,885l-1,1v173.18L799.43,1004a15,15,0,1,1,29-4.79,15.16,15.16,0,0,1-14.59,14.41,14.94,14.94,0,0,1-5.84-1l-63.74,63.74V1159a36.19,36.19,0,0,1,22.05-7.35,35.27,35.27,0,0,1,28.14,13.42,36.21,36.21,0,0,1,56.28,0,35.27,35.27,0,0,1,28.14-13.42,37,37,0,0,1,13.69,2.62V982.85a5.92,5.92,0,0,1,.56-2.55l57.82-126a192.74,192.74,0,0,0,17.67-80.91V567.61C968.64,518.64,957.92,475.9,936.77,440.4ZM592.18,692.88a12.31,12.31,0,0,1,14.38-12.11,12.5,12.5,0,0,1,10.19,12.45v26.65a12.51,12.51,0,0,1-10.19,12.45,12.31,12.31,0,0,1-14.38-12.11ZM557.73,799.46a12.31,12.31,0,0,1,14.34-12.11,12.49,12.49,0,0,1,10.23,12.44v23.15a12.3,12.3,0,0,1-14.36,12.11,12.5,12.5,0,0,1-10.21-12.45Zm-62.47-101a12.14,12.14,0,0,1,.85-4.48,12.3,12.3,0,0,1,13.05-7.7,12.53,12.53,0,0,1,10.67,12.54v46.59a12.29,12.29,0,0,1-12.29,12.27,11.43,11.43,0,0,1-2.21-.2,12.29,12.29,0,0,1-10.07-12.07Zm296.22,69a12.3,12.3,0,0,1-14.37,12.1,12.5,12.5,0,0,1-10.2-12.45V729.68a12.29,12.29,0,1,1,24.57,0Zm72.2-49.17a12.3,12.3,0,0,1-14.36,12.11A12.49,12.49,0,0,1,839.11,718V694.81a12.3,12.3,0,0,1,14.34-12.11,12.47,12.47,0,0,1,10.23,12.43Zm43,70.54a12.29,12.29,0,0,1-14.35,12.12,12.51,12.51,0,0,1-10.21-12.45v-27a12.3,12.3,0,0,1,12.29-12.28,12.32,12.32,0,0,1,12.27,12.28Z" transform="translate(-323.31 -206.12)"/><circle class="cls-4" cx="339.66" cy="527.08" r="5.91"/><path class="cls-4" d="M813.44,1004.51a5.91,5.91,0,1,0-5.91-5.91A5.92,5.92,0,0,0,813.44,1004.51Z" transform="translate(-323.31 -206.12)"/><path class="cls-4" d="M813.44,814.14a5.91,5.91,0,1,0-5.91-5.91A5.92,5.92,0,0,0,813.44,814.14Z" transform="translate(-323.31 -206.12)"/><path class="cls-4" d="M657.06,923.57a5.91,5.91,0,1,0,5.91-5.91A5.92,5.92,0,0,0,657.06,923.57Z" transform="translate(-323.31 -206.12)"/><path class="cls-3" d="M894.38,758.34a3.19,3.19,0,0,0-3.16,3.15v27.34a3.16,3.16,0,0,0,6.31,0V761.49A3.19,3.19,0,0,0,894.38,758.34Z" transform="translate(-323.31 -206.12)"/><path class="cls-3" d="M851.4,691.65a3.16,3.16,0,0,0-3.16,3.16v23.47a3.16,3.16,0,0,0,3.16,3.16,3.2,3.2,0,0,0,3.15-3.16V694.81A3.2,3.2,0,0,0,851.4,691.65Z" transform="translate(-323.31 -206.12)"/><path class="cls-8" d="M701.41,1073c10,3.86,20.31,8.27,30.71,11v75a36.2,36.2,0,0,0-22.06-7.35,35.26,35.26,0,0,0-28.13,13.42,36.21,36.21,0,0,0-56.28,0,35.27,35.27,0,0,0-28.14-13.42,37,37,0,0,0-12.74,2.26v-62.68c13.23,2.81,26.56,3.31,37.75-3.61,7.11-4.39,12.34-11.33,19.31-15.94C659.07,1060.3,682.13,1065.54,701.41,1073Z" transform="translate(-323.31 -206.12)"/><path class="cls-8" d="M892.59,1087.18v67.12a37,37,0,0,0-13.69-2.62,35.27,35.27,0,0,0-28.14,13.42,36.21,36.21,0,0,0-56.28,0,35.27,35.27,0,0,0-28.14-13.42,36.19,36.19,0,0,0-22.05,7.35v-72.76a53.23,53.23,0,0,0,16.87-.76c15.6-3.32,28.65-14.51,44.25-17.82,15.3-3.24,31.09,1.44,45.71,7C864.66,1079.84,878.24,1085.84,892.59,1087.18Z" transform="translate(-323.31 -206.12)"/><polyline class="cls-9" points="132.37 425.8 600.74 425.8 600.74 449.5 490.13 449.5 479.37 437.65 464.33 441.39 464.33 451.81 129.69 451.81"/><path class="cls-5" d="M623.69,466.51a15.21,15.21,0,0,1,6.13-10.29c1.51-1.16,1.21-3.72,0-5-1.45-1.49-3.46-1.15-4.94,0a21.89,21.89,0,0,0-8.19,15.24c-.21,1.89,1.76,3.48,3.5,3.5a3.58,3.58,0,0,0,3.5-3.5Z" transform="translate(-323.31 -206.12)"/><path class="cls-5" d="M641.74,450.24c4.51,0,4.51-7,0-7s-4.51,7,0,7Z" transform="translate(-323.31 -206.12)"/><path class="cls-5" d="M839.92,542.5a25.59,25.59,0,0,1,14.79,20.43c.46,4.44,7.46,4.49,7,0a32.59,32.59,0,0,0-18.26-26.48c-4.05-1.93-7.6,4.11-3.53,6Z" transform="translate(-323.31 -206.12)"/><path class="cls-5" d="M859.89,583.91c4.5,0,4.51-7,0-7s-4.51,7,0,7Z" transform="translate(-323.31 -206.12)"/><path class="cls-9" d="M835.17,515.61c-9.55-10.47-22.12,7.09-25.66,14.86l6.28-.81c-6.39-6.57-13.61-13.62-23.15-14.76-7.56-.9-15.19,1.94-19.14,8.66-2.61,4.44,4.3,8.47,6.91,4,2.8-4.75,8.79-5.71,13.77-4.25,6.47,1.89,11.41,7.3,16,12,1.66,1.7,5.21,1.56,6.29-.81,1-2.12,9.5-17.17,13.09-13.23s9.12-1.86,5.66-5.66Z" transform="translate(-323.31 -206.12)"/><path class="cls-9" d="M535.52,533a18.83,18.83,0,0,1,16.35,12.12c1,2.8,4.37,4,6.68,1.76a22.13,22.13,0,0,1,17.62-6.08c5.13.4,5.1-7.6,0-8a29.91,29.91,0,0,0-23.27,8.42l6.68,1.77a27.2,27.2,0,0,0-24.06-18c-5.14-.34-5.12,7.66,0,8Z" transform="translate(-323.31 -206.12)"/><path class="cls-9" d="M593.62,543.41c5.15,0,5.16-8,0-8s-5.15,8,0,8Z" transform="translate(-323.31 -206.12)"/><path class="cls-9" d="M611.73,594.45c-6.15-9.57-18.89-12.62-28.14-5.42-1.13.88-4.07,4.59-4.34,4.62s-3.44-1.6-3.73-1.68a13.45,13.45,0,0,0-4.29-.48c-5.88.28-10.27,4.56-11.83,10-1.41,5,6.3,7.08,7.72,2.13.81-2.85,3.08-4.83,6.28-4,1.89.52,3.34,1.91,5.34,2.2,2.82.4,4.85-.82,6.63-2.94,2.51-3,4.62-5.54,8.82-6a11.38,11.38,0,0,1,10.63,5.51c2.78,4.31,9.71.31,6.91-4Z" transform="translate(-323.31 -206.12)"/><path class="cls-9" d="M666.59,502.81c-7.37-9.9-20.17-11.46-29.69-3.52-4,3.3,1.72,8.93,5.65,5.66a11.75,11.75,0,0,1,17.13,1.9c3,4.08,10,.1,6.91-4Z" transform="translate(-323.31 -206.12)"/><path class="cls-9" d="M622.85,512.05c5.15,0,5.16-8,0-8s-5.16,8,0,8Z" transform="translate(-323.31 -206.12)"/><path class="cls-9" d="M713.41,481.32c1.44-8.32,9.68-12.39,17-7.85,4.39,2.72,8.41-4.2,4-6.91-11.41-7.06-26.45-.78-28.78,12.63-.87,5,6.83,7.2,7.72,2.13Z" transform="translate(-323.31 -206.12)"/><path class="cls-9" d="M745.11,483.89c5.15,0,5.16-8,0-8s-5.15,8,0,8Z" transform="translate(-323.31 -206.12)"/><path class="cls-9" d="M716.6,583.34H750c5.15,0,5.16-8,0-8H716.6c-5.15,0-5.16,8,0,8Z" transform="translate(-323.31 -206.12)"/><path class="cls-9" d="M803.21,594.57c5.15,0,5.16-8,0-8s-5.15,8,0,8Z" transform="translate(-323.31 -206.12)"/><path class="cls-9" d="M811.77,580.13c5.15,0,5.16-8,0-8s-5.16,8,0,8Z" transform="translate(-323.31 -206.12)"/><path class="cls-9" d="M819.25,594.83c5.15,0,5.16-8,0-8s-5.15,8,0,8Z" transform="translate(-323.31 -206.12)"/><path class="cls-8" d="M502.22,812.46v49.9c0,7.08,11,7.09,11,0v-49.9c0-7.08-11-7.09-11,0Z" transform="translate(-323.31 -206.12)"/><path class="cls-8" d="M508.43,905.64c7.08,0,7.09-11,0-11s-7.09,11,0,11Z" transform="translate(-323.31 -206.12)"/><path class="cls-8" d="M626.26,794.63V820.3c0,7.08,11,7.09,11,0V794.63c0-7.07-11-7.09-11,0Z" transform="translate(-323.31 -206.12)"/><path class="cls-8" d="M552.83,662.75V687c0,7.07,11,7.08,11,0V662.75c0-7.08-11-7.09-11,0Z" transform="translate(-323.31 -206.12)"/><path class="cls-8" d="M556.19,737.4c7.08,0,7.09-11,0-11s-7.09,11,0,11Z" transform="translate(-323.31 -206.12)"/><path class="cls-8" d="M671.17,658.47v17.11c0,7.08,11,7.09,11,0V658.47c0-7.08-11-7.09-11,0Z" transform="translate(-323.31 -206.12)"/><path class="cls-8" d="M823.74,746.16v12.12c0,7.07,11,7.08,11,0V746.16c0-7.08-11-7.09-11,0Z" transform="translate(-323.31 -206.12)"/><path class="cls-8" d="M890,659.89v30c0,7.07,11,7.09,11,0v-30c0-7.07-11-7.08-11,0Z" transform="translate(-323.31 -206.12)"/><path class="cls-8" d="M779.54,878V892.3c0,7.08,11,7.09,11,0V878c0-7.08-11-7.09-11,0Z" transform="translate(-323.31 -206.12)"/><path class="cls-10" d="M547.49,460.64v15c0,7.08,11,7.09,11,0v-15c0-7.08-11-7.09-11,0Z" transform="translate(-323.31 -206.12)"/><path class="cls-10" d="M862,498.22c7.08,0,7.09-11,0-11s-7.09,11,0,11Z" transform="translate(-323.31 -206.12)"/><path class="cls-10" d="M814.82,666v34.22c0,7.08,11,7.09,11,0V666c0-7.07-11-7.09-11,0Z" transform="translate(-323.31 -206.12)"/><path class="cls-10" d="M528.24,759v15c0,7.08,11,7.09,11,0V759c0-7.08-11-7.09-11,0Z" transform="translate(-323.31 -206.12)"/><path class="cls-10" d="M465.15,659.54v29.94c0,7.08,11,7.09,11,0V659.54c0-7.08-11-7.09-11,0Z" transform="translate(-323.31 -206.12)"/><path class="cls-10" d="M690.78,719.42v22.46c0,7.08,11,7.09,11,0V719.42c0-7.08-11-7.09-11,0Z" transform="translate(-323.31 -206.12)"/><path class="cls-10" d="M697.2,826.36v18.18c0,7.07,11,7.09,11,0V826.36c0-7.08-11-7.09-11,0Z" transform="translate(-323.31 -206.12)"/><path class="cls-10" d="M854.39,826v22.81c0,7.08,11,7.09,11,0V826c0-7.08-11-7.09-11,0Z" transform="translate(-323.31 -206.12)"/><path class="cls-10" d="M862,784.81c7.08,0,7.09-11,0-11s-7.09,11,0,11Z" transform="translate(-323.31 -206.12)"/><path class="cls-10" d="M777,442.46V400.4c0-7.08-11-7.09-11,0v42.06c0,7.08,11,7.09,11,0Z" transform="translate(-323.31 -206.12)"/><path class="cls-10" d="M772.92,382.37c7.07,0,7.09-11,0-11s-7.09,11,0,11Z" transform="translate(-323.31 -206.12)"/><path class="cls-10" d="M611.29,400.4v15.68c0,7.08,11,7.09,11,0V400.4c0-7.08-11-7.09-11,0Z" transform="translate(-323.31 -206.12)"/><path class="cls-5" d="M790.71,1079a32.43,32.43,0,0,1,33.76-5.14c4.08,1.79,7.65-4.24,3.53-6a39.78,39.78,0,0,0-42.24,6.23c-3.42,3,1.55,7.88,5,5Z" transform="translate(-323.31 -206.12)"/><path class="cls-5" d="M845.63,1077.59c4.51,0,4.51-7,0-7s-4.51,7,0,7Z" transform="translate(-323.31 -206.12)"/><path class="cls-5" d="M869.16,1086.15c4.5,0,4.51-7,0-7s-4.51,7,0,7Z" transform="translate(-323.31 -206.12)"/><path class="cls-5" d="M635.2,1082.35a48.06,48.06,0,0,1,34.36-12c4.5.2,4.49-6.8,0-7a55.19,55.19,0,0,0-39.31,14.1c-3.37,3,1.59,7.94,5,4.95Z" transform="translate(-323.31 -206.12)"/><path class="cls-5" d="M687.19,1073.67c4.5,0,4.51-7,0-7s-4.51,7,0,7Z" transform="translate(-323.31 -206.12)"/><path class="cls-5" d="M702.16,1078c4.51,0,4.51-7,0-7s-4.51,7,0,7Z" transform="translate(-323.31 -206.12)"/><path class="cls-5" d="M488.43,494.31l-6.35-8.59a3.61,3.61,0,0,0-4.79-1.26c-1.5.88-2.39,3.26-1.26,4.79l6.36,8.6a3.61,3.61,0,0,0,4.79,1.25c1.49-.87,2.38-3.26,1.25-4.79Z" transform="translate(-323.31 -206.12)"/><path class="cls-5" d="M465.3,474.83c4.5,0,4.51-7,0-7s-4.51,7,0,7Z" transform="translate(-323.31 -206.12)"/><path class="cls-5" d="M860.72,445.42l8.57-8c3.31-3.08-1.65-8-4.95-4.95l-8.57,8c-3.3,3.08,1.66,8,5,4.95Z" transform="translate(-323.31 -206.12)"/><path class="cls-5" d="M882.88,423c4.51,0,4.51-7,0-7s-4.51,7,0,7Z" transform="translate(-323.31 -206.12)"/><path class="cls-5" d="M579.39,1089.21a41.62,41.62,0,0,0,21.71,9.08c4.47.53,4.43-6.48,0-7a33,33,0,0,1-16.76-7c-3.48-2.79-8.47,2.14-5,5Z" transform="translate(-323.31 -206.12)"/><path class="cls-10" d="M969,521.8H944c-7.08,0-7.09,11,0,11h25c7.08,0,7.09-11,0-11Z" transform="translate(-323.31 -206.12)"/><path class="cls-10" d="M970.39,552.45H956.13c-7.08,0-7.09,11,0,11h14.26c7.08,0,7.09-11,0-11Z" transform="translate(-323.31 -206.12)"/><path class="cls-10" d="M970.39,581.68h-5a5.5,5.5,0,0,0,0,11h5a5.5,5.5,0,0,0,0-11Z" transform="translate(-323.31 -206.12)"/><path class="cls-10" d="M428.94,457.58H461c7.08,0,7.09-11,0-11H428.94c-7.08,0-7.09,11,0,11Z" transform="translate(-323.31 -206.12)"/><path class="cls-7" d="M660.66,374.21a26.48,26.48,0,0,1,11.66,1c.26-1,.53-1.92.8-2.89l-25-3.5c-1.54-.22-2.81,1.88-1.16,2.74a70.81,70.81,0,0,0,24.33,7.56c-.25-.93-.5-1.87-.76-2.8a17.41,17.41,0,0,1-13.71,1.71l.66,2.5a6.14,6.14,0,0,1,6.22-2.32l.8-2.9L636.43,371a1.51,1.51,0,0,0-.8,2.9,77.87,77.87,0,0,0,20.61,5.46v-3a85.35,85.35,0,0,1-18.69-2.3,1.5,1.5,0,0,0-.79,2.89l21,6.74c1.35.43,2.83,1,4.26.59a3.27,3.27,0,0,0,2.34-2.47c.51-2.6-2.09-4.8-4.26-5.58-1.59-.58-2.67,2-1.15,2.74,4.95,2.5,10.26,5.09,16,4.33,4.73-.63,9.13-3.66,10.07-8.56a14.46,14.46,0,0,0-4.07-12.53c-3.71-3.78-9-5.51-14.08-6.53-6.22-1.25-12.81-1.54-18.53-4.57l-1.15,2.74,20.92,5.57c.13-1,.26-2,.4-2.94a97,97,0,0,1-29.33-4.1c-.27,1-.54,1.93-.8,2.89L666.63,361l-.36-2.74c-7.5,3.19-15.8,3.61-23.83,4a1.51,1.51,0,0,0-.76,2.79A36.42,36.42,0,0,0,660,370.32c1.39,0,2.18-2.2.76-2.8a49.52,49.52,0,0,0-14.33-3.73c-1.67-.18-2.08,2.68-.4,2.94a85.87,85.87,0,0,0,13.21,1A1.51,1.51,0,0,0,660,365a17.89,17.89,0,0,0-7.32-2.51v3a28.32,28.32,0,0,1,9.39.95c.27-1,.53-1.93.8-2.89a22,22,0,0,1-10.71-5.84c-.35.85-.7,1.71-1.06,2.56a62.77,62.77,0,0,1,22.21,4.33c.13-1,.27-2,.4-2.95a74.85,74.85,0,0,1-14.64-1.21,1.5,1.5,0,0,0-.8,2.89l13.33,5.48c.13-1,.27-2,.4-2.94l-14.39-1.5c-1.08-.11-1.58,1-1.45,1.9a5,5,0,0,0,5.94,3.92c1.36-.27,1.35-2.08.36-2.74l-25-16.81.54,2.05c1.08-1.67,3.59-1.49,5.32-1.29,3,.33,6,1,9,1.46L671,356a1.5,1.5,0,0,0,.79-2.9l-27.13-9.79c-.13,1-.26,2-.4,3A65.4,65.4,0,0,1,677,352.66l1.15-2.74q-15-2.48-29.73-6.11c-.27,1-.53,1.93-.8,2.89A116.79,116.79,0,0,1,676,354.57v-2.89a54.66,54.66,0,0,1-14.23.07c-1.66-.21-1.78,2-.76,2.79a39.92,39.92,0,0,0,15.52,7.07c.14-1,.27-2,.4-2.95a35,35,0,0,1-16.23-4.48c-.26.93-.51,1.86-.76,2.79,5.83-.38,11.75-.5,17.55-1.23,4.37-.54,9.64-3,9.56-8.17-.07-4.62-4.76-6.39-8.62-6.91-5.62-.75-11.35-1-17-1.43l-20.32-1.66c-1.71-.14-2,2.52-.4,2.95l37.69,10.09c1.89.51,2.58-2.24.79-2.89l-23.71-8.67c-.13,1-.27,2-.4,2.95l26.49,3.33v-3A186.16,186.16,0,0,1,644.75,335l-.79,2.89q21.16,4,42.64,6.27c-.13-1-.27-2-.4-2.95a56.89,56.89,0,0,1-19.22,0c-.13,1-.26,2-.4,2.94a142.55,142.55,0,0,1,17.21,2.56,1.5,1.5,0,0,0,.8-2.89,154.52,154.52,0,0,0-27.66-4.94v3a104.16,104.16,0,0,1,24.84,2.32,1.51,1.51,0,0,0,.8-2.9,233.25,233.25,0,0,0-36.47-11c-.14,1-.27,2-.4,3l18.84,2.07,9.17,1c1.52.17,3,.3,4.56.51,1,.14,2.31.32,2.92,1.23l1.3-2.26-37.57-.18c-2,0-1.86,2.78,0,3a200,200,0,0,1,34.92,7.4c.27-1,.54-1.93.8-2.9A70.13,70.13,0,0,1,662.4,338c-.25.93-.51,1.86-.76,2.8A94.48,94.48,0,0,1,681.23,345v-2.89a35.19,35.19,0,0,1-13.56.67c-1.88-.27-2.7,2.6-.79,2.9,3.9.61,8.11,1.28,11.93-.12a10.3,10.3,0,0,0,6.58-6.43,1.51,1.51,0,0,0-1.45-1.89,117.67,117.67,0,0,1-26.8-5.13c-.13,1-.26,2-.4,2.95a87.52,87.52,0,0,1,26.3.49l.79-2.89-31.51-4.45c-.13,1-.26,2-.4,2.94l24.28,2.35v-3A142.5,142.5,0,0,1,646.8,329c-1.51-.23-2.85,2-1.16,2.74a83.36,83.36,0,0,0,45.3,6.43c1.54-.21,1.3-2.51,0-2.89l-18.12-5.22V333a74.91,74.91,0,0,1,23.72.42c.13-1,.27-2,.4-2.95h-20.8c-2,0-1.88,2.8,0,3l13,1.36c1.7.18,2-2.53.4-2.94A82,82,0,0,0,668,329.32c-1.92,0-1.93,3,0,3a78.89,78.89,0,0,1,20.81,2.43c.13-1,.27-2,.4-2.95l-13-1.36v3h20.8c1.64,0,2.11-2.64.4-2.94a79.37,79.37,0,0,0-25.32-.42c-1.54.22-1.31,2.52,0,2.89l18.12,5.22v-2.89a79.65,79.65,0,0,1-43-6.13L646,331.91a146.75,146.75,0,0,0,30.2,1.59,1.5,1.5,0,0,0,0-3l-24.28-2.35c-1.66-.16-2.07,2.71-.4,3L683,335.55c1.87.27,2.72-2.56.79-2.89a89.48,89.48,0,0,0-27.09-.6,1.51,1.51,0,0,0-.4,2.95,121.23,121.23,0,0,0,27.6,5.23l-1.44-1.9c-1.92,6.1-10,5.2-14.83,4.44-.26,1-.53,1.93-.79,2.9A39.19,39.19,0,0,0,682,345a1.51,1.51,0,0,0,0-2.89,97.81,97.81,0,0,0-20.38-4.3c-1.44-.15-2.1,2.21-.76,2.79a73.29,73.29,0,0,0,19,5.41c1.86.26,2.7-2.31.8-2.9a205.3,205.3,0,0,0-35.72-7.5v3l37.57.18a1.5,1.5,0,0,0,1.29-2.25c-1.57-2.34-4.26-2.59-6.84-2.87l-10.42-1.15-20.82-2.29c-1.68-.19-2,2.59-.4,2.94a232.21,232.21,0,0,1,36.47,11c.26-1,.53-1.93.8-2.9a107.77,107.77,0,0,0-25.64-2.42,1.5,1.5,0,0,0,0,3,151,151,0,0,1,26.86,4.83c.26-1,.53-1.92.8-2.89a149.81,149.81,0,0,0-18-2.67c-1.66-.14-2.06,2.66-.39,2.95a61.1,61.1,0,0,0,20.81,0c1.79-.3,1.14-2.78-.4-2.94q-21-2.17-41.85-6.16a1.5,1.5,0,0,0-.79,2.89,189.59,189.59,0,0,0,37.6,7.48c1.94.18,1.88-2.77,0-3L655.07,339c-1.78-.23-1.87,2.4-.4,2.94l23.72,8.67.79-2.89L641.5,337.63c-.13,1-.26,2-.4,2.94l31.22,2.55a62.77,62.77,0,0,1,6.7.65c1.49.29,3.28.73,4.3,2,1.18,1.41.73,3.27-.39,4.58-1.4,1.63-3.6,2.2-5.66,2.46-5.72.73-11.59.82-17.34,1.2a1.52,1.52,0,0,0-.76,2.8,38.43,38.43,0,0,0,17.75,4.89c1.67,0,2.07-2.58.4-2.94a38,38,0,0,1-14.8-6.77c-.25.93-.51,1.86-.76,2.8a57.3,57.3,0,0,0,15-.18c1.67-.24,1.16-2.41,0-2.89a116.47,116.47,0,0,0-28.36-7.87c-1.85-.27-2.72,2.41-.8,2.89q14.75,3.65,29.73,6.11c1.54.26,2.81-1.93,1.16-2.74a68.5,68.5,0,0,0-34.28-6.84,1.51,1.51,0,0,0-.39,2.95L671,356c.26-1,.53-1.93.79-2.9l-21.18-3.52a54.79,54.79,0,0,0-9-1.27c-2.47,0-4.83.73-6.22,2.88a1.52,1.52,0,0,0,.54,2L661,370l.36-2.74a2,2,0,0,1-2.26-1.83l-1.44,1.9,14.39,1.5c1.83.19,1.81-2.37.4-3l-13.33-5.48c-.27,1-.53,1.93-.8,2.89a79.2,79.2,0,0,0,15.44,1.32,1.5,1.5,0,0,0,.4-2.94,65,65,0,0,0-23-4.44,1.52,1.52,0,0,0-1.06,2.56,25,25,0,0,0,12,6.61,1.5,1.5,0,0,0,.8-2.89,31,31,0,0,0-10.19-1.06,1.5,1.5,0,0,0,0,3,14.39,14.39,0,0,1,5.8,2.1c.25-.93.51-1.86.76-2.8a81.94,81.94,0,0,1-12.42-.93l-.39,3a44.49,44.49,0,0,1,12.81,3.32c.25-.93.51-1.86.76-2.79a33.37,33.37,0,0,1-16.81-4.84l-.75,2.8c8.61-.44,17.31-1,25.34-4.43a1.52,1.52,0,0,0-.36-2.75l-28.28-5.74a1.5,1.5,0,0,0-.8,2.89,99.47,99.47,0,0,0,30.13,4.21,1.51,1.51,0,0,0,.39-2.95L648,350.94c-1.61-.43-2.69,1.92-1.16,2.74,8.76,4.64,19.36,3.1,28.06,7.76,3.72,2,6.68,5.28,7.28,9.58a7.91,7.91,0,0,1-6,9c-5.48,1.52-10.89-1.21-15.67-3.63-.39.92-.77,1.83-1.16,2.74.84.31,3.42,2.66,1.1,2.22A63.48,63.48,0,0,1,653,379L637.55,374l-.79,2.89a88.77,88.77,0,0,0,19.48,2.41c2,0,1.86-2.77,0-3A74.74,74.74,0,0,1,636.43,371c-.27,1-.54,1.93-.8,2.9l28.12,4.37c1.86.29,2.72-2.46.8-2.9a9.09,9.09,0,0,0-9.14,3.1,1.53,1.53,0,0,0,.66,2.51,20.45,20.45,0,0,0,16-2,1.51,1.51,0,0,0-.76-2.79A67,67,0,0,1,648.52,369l-1.15,2.74,25,3.5a1.5,1.5,0,0,0,.8-2.89,28.44,28.44,0,0,0-12.46-1.15,1.55,1.55,0,0,0-1.5,1.5,1.51,1.51,0,0,0,1.5,1.5Z" transform="translate(-323.31 -206.12)"/><path class="cls-7" d="M681,341.76c-8.48,2.24-17.65,4.86-23.46,11.89-.76.92-.34,2.64,1.07,2.56a42.12,42.12,0,0,0,23.54-8.61,1.51,1.51,0,0,0-.76-2.79,24.41,24.41,0,0,0-15.64,3.48,1.52,1.52,0,0,0,.76,2.8,23.39,23.39,0,0,0,17.58-7.77c.8-.89.32-2.65-1.06-2.56a35.79,35.79,0,0,0-25.49,13.3c-.63.8-.57,2.28.66,2.51a16,16,0,0,0,13.5-3.6c1.28-1.11-.41-3.31-1.82-2.36l-27.26,18.32a1.51,1.51,0,0,0,1.15,2.74,87.49,87.49,0,0,0,15.83-4.34l-1.15-2.74-15,9.61c-1.62,1-.13,3.62,1.51,2.59l15.54-9.69a1.5,1.5,0,0,0-1.52-2.59l-18.1,10.33c-1.72,1-.21,3.34,1.51,2.6a271,271,0,0,0,35.82-18.74,1.5,1.5,0,0,0-1.51-2.59l-10.31,5.67c.5.86,1,1.72,1.51,2.59a147.66,147.66,0,0,1,17.29-11.1c1.46-.8.47-3.31-1.16-2.74a95.42,95.42,0,0,0-21.82,11c-1.31.88-.52,3.43,1.15,2.74l5.65-2.33c-.39-.92-.77-1.83-1.16-2.74a68.48,68.48,0,0,0-26.34,24.75,1.51,1.51,0,0,0,2.05,2.05,74.27,74.27,0,0,0,15.81-12.2l-1.46.39.13,0-1-1.05c.15-.4.3-.8.46-1.2l1.15-.15c.46.95.74,1.09.82.43.08-.24.15-.47.23-.7s.24-.67.38-1a19.4,19.4,0,0,1,1.18-2.26,18.68,18.68,0,0,1,2.91-3.71,19,19,0,0,1,8.38-4.88c-.38-.91-.77-1.82-1.15-2.74a40.05,40.05,0,0,0-13.92,11.67c-1.1,1.45,1.14,2.83,2.35,1.82a65.07,65.07,0,0,1,13.65-8.71c-.68-.69-1.36-1.37-2.05-2.05a26.67,26.67,0,0,1-11,8.84l2.05,2.06a46.92,46.92,0,0,1,8.74-9.28c1.5-1.22-.63-3.33-2.12-2.12a49.63,49.63,0,0,0-9.21,9.88c-1,1.37.85,2.59,2,2.05a29.38,29.38,0,0,0,12.1-9.92c1-1.34-.84-2.63-2-2.05a67.76,67.76,0,0,0-14.26,9.18l2.36,1.82a36.82,36.82,0,0,1,12.84-10.6c1.54-.77.46-3.18-1.15-2.74a22.16,22.16,0,0,0-14.34,12.4c-.54,1.25-1.5,3.05-.88,4.41a1.81,1.81,0,0,0,3.39-.18,1.65,1.65,0,0,0-2.8-1.6c-1.39,1.28-2.7,2.63-4.14,3.87a69.72,69.72,0,0,1-10.91,7.7l2.06,2.05a65.57,65.57,0,0,1,25.27-23.67c1.47-.78.43-3.4-1.16-2.75l-5.65,2.34c.39.91.78,1.82,1.16,2.74a92.88,92.88,0,0,1,21.11-10.68c-.38-.91-.77-1.82-1.16-2.74a148.38,148.38,0,0,0-17.28,11.1,1.5,1.5,0,0,0,1.51,2.59l10.31-5.67c-.5-.86-1-1.72-1.51-2.59a270.37,270.37,0,0,1-35.82,18.73l1.51,2.6,18.11-10.34L659,364.51l-15.53,9.69,1.51,2.59,15-9.61c1.36-.87.51-3.37-1.15-2.74A87.81,87.81,0,0,1,643,368.78c.39.92.77,1.83,1.16,2.74l27.26-18.32-1.81-2.36A12.78,12.78,0,0,1,659,353.68l.66,2.5a32.92,32.92,0,0,1,23.37-12.42c-.36-.85-.71-1.71-1.06-2.56a20.45,20.45,0,0,1-15.46,6.89l.75,2.79a21.83,21.83,0,0,1,14.13-3.07c-.25-.94-.5-1.87-.76-2.8a39.42,39.42,0,0,1-22,8.2c.35.86.7,1.71,1.06,2.56,5.48-6.65,14.12-9,22.12-11.11a1.5,1.5,0,0,0-.79-2.9Z" transform="translate(-323.31 -206.12)"/><path class="cls-7" d="M660.17,327.42A105,105,0,0,0,692,331.8c1.93,0,1.94-3,0-3a102.21,102.21,0,0,1-31-4.27c-1.86-.56-2.65,2.34-.8,2.89Z" transform="translate(-323.31 -206.12)"/><path class="cls-7" d="M661.54,326.71c.27-2.73-4.56-2.19-3.9.6a3,3,0,0,0,2.75,2c1.76.25,3.53.42,5.31.58a141.28,141.28,0,0,0,21.28.3,1.5,1.5,0,0,0,0-3A174.4,174.4,0,0,0,666,326c.14,1,.27,2,.4,2.94a196.74,196.74,0,0,1,32.63-1.74v-3l-11.62.15a1.51,1.51,0,0,0-.75,2.8,24.39,24.39,0,0,0,7.52,3.14l.39-2.94a9.27,9.27,0,0,0-5.49,1.25,1.5,1.5,0,0,0,1.52,2.59,6.4,6.4,0,0,1,4-.84c1.69.14,2-2.57.4-2.95a21.87,21.87,0,0,1-6.8-2.84c-.25.93-.5,1.86-.76,2.79l11.62-.15a1.5,1.5,0,0,0,0-3A199.71,199.71,0,0,0,665.65,326c-1.7.23-1.26,2.95.39,2.95A174.4,174.4,0,0,1,687,330.16v-3c-4.57.27-9.14.34-13.71.18q-3.42-.12-6.84-.42c-.83-.07-7.8-1.14-7.89-.21-.19,1.92,2.82,1.91,3,0Z" transform="translate(-323.31 -206.12)"/><path class="cls-7" d="M698.22,326.25a202.41,202.41,0,0,1,33.39,1c1.91.21,1.9-2.79,0-3a202.41,202.41,0,0,0-33.39-1c-1.92.1-1.93,3.11,0,3Z" transform="translate(-323.31 -206.12)"/><path class="cls-7" d="M662.39,327.9a71.94,71.94,0,0,0,24.75.29c1.9-.31,1.09-3.2-.8-2.89a67.91,67.91,0,0,1-23.15-.29c-1.89-.35-2.69,2.54-.8,2.89Z" transform="translate(-323.31 -206.12)"/><path class="cls-7" d="M661.71,327.43A21.48,21.48,0,0,0,677.42,319a1.51,1.51,0,0,0-.54-2.05,1.53,1.53,0,0,0-2,.54,18.28,18.28,0,0,1-13.12,6.93,1.5,1.5,0,0,0,0,3Z" transform="translate(-323.31 -206.12)"/><path class="cls-7" d="M674.21,323l20.86-1.19c1.92-.11,1.94-3.11,0-3L674.21,320c-1.92.11-1.93,3.12,0,3Z" transform="translate(-323.31 -206.12)"/><path class="cls-7" d="M672.15,325,692,327.17a1.5,1.5,0,0,0,1.5-1.5,1.54,1.54,0,0,0-1.5-1.5L672.15,322a1.5,1.5,0,0,0-1.5,1.5,1.54,1.54,0,0,0,1.5,1.5Z" transform="translate(-323.31 -206.12)"/><path class="cls-7" d="M679.83,323a61.68,61.68,0,0,1,23.22-.1c1.89.35,2.7-2.54.8-2.89a65.73,65.73,0,0,0-24.81.1c-1.9.37-1.09,3.27.79,2.89Z" transform="translate(-323.31 -206.12)"/><path class="cls-7" d="M691.59,322.82l5.21,1.09a1.54,1.54,0,0,0,1.84-1.05,1.52,1.52,0,0,0-1-1.85l-5.2-1.08a1.5,1.5,0,1,0-.8,2.89Z" transform="translate(-323.31 -206.12)"/><path class="cls-7" d="M686.75,324.13a42.1,42.1,0,0,1,14.24.76c1.88.43,2.68-2.46.8-2.89a44.5,44.5,0,0,0-15-.87,1.54,1.54,0,0,0-1.5,1.5,1.51,1.51,0,0,0,1.5,1.5Z" transform="translate(-323.31 -206.12)"/><path class="cls-7" d="M884.29,404.41q1.11,6.68,2.21,13.36c.48-.64,1-1.27,1.45-1.9a11.33,11.33,0,0,1-11.65-7l-2.51,1.46a45.66,45.66,0,0,1,12,15.81,1.51,1.51,0,0,0,2.59,0,12.57,12.57,0,0,0-3.22-15.18c-.77-.61-2.32-.57-2.51.67q-1.63,10.47-3.26,20.94a1.51,1.51,0,0,0,2.74,1.16A29.36,29.36,0,0,0,887,418.64a1.54,1.54,0,0,0-1.5-1.5,9.28,9.28,0,0,1-5.3-2.68,1.52,1.52,0,0,0-2.35.3,13.54,13.54,0,0,0-2.29,8.31,1.5,1.5,0,0,0,3,0q.57-5.06,1.15-10.11c.12-1.06.06-2.76.79-3.63s2.48-.48,3.46-.29a15.68,15.68,0,0,1,11.29,9.11c.44-.75.87-1.5,1.3-2.26l-14.39-.52c-2.1-.07-4.68-.58-6.7.15-1.76.64-2.42,2.29-2.7,4-.61,3.75-.88,8.31,2.84,10.57a5.08,5.08,0,0,0,4.63.44c1.82-.81,2.75-2.72,3.56-4.42a32.67,32.67,0,0,0,3.09-14.49,1.52,1.52,0,0,0-2.56-1.06,6.94,6.94,0,0,0-1.72,6.64c.35,1.33,2.68,1.52,2.9,0a10.12,10.12,0,0,0-1.49-7.13,1.52,1.52,0,0,0-2.59,0,28,28,0,0,0-4.64,11.85l2.74-.35a3.18,3.18,0,0,1,.76-4.15l-2.5-.66q2.94,13.26,5.9,26.51c.85,3.81,1.39,7.89,2.86,11.52,1.28,3.15,3.68,5.66,7.23,5.95,4.16.34,8-2.42,11.11-4.86l-2.12-2.13a61,61,0,0,0-15.3,24.88,1.51,1.51,0,0,0,1.85,1.84,25.46,25.46,0,0,0,13.76-11,1.51,1.51,0,0,0-2.36-1.82,50.7,50.7,0,0,0-7,9.38,1.51,1.51,0,0,0,2.36,1.82,53,53,0,0,0,11-13.88,1.52,1.52,0,0,0-1.7-2.21,26.75,26.75,0,0,0-10.72,6.51c-2.83,2.83-6.32,7.23-5.56,11.51.7,4,4.87,5.46,8.44,5.45a25.38,25.38,0,0,0,11.75-3.4,29.35,29.35,0,0,0,10.33-9.51c.9-1.36-.81-2.64-2-2.06A87.86,87.86,0,0,0,900.42,482c-1.34,1.06.39,3.26,1.82,2.36l15.81-10.11-1.52-2.59A162.22,162.22,0,0,0,897,488.32a1.51,1.51,0,0,0,1.46,2.51,101.5,101.5,0,0,0,34.89-20c1.21-1.05-.1-2.79-1.46-2.5A208.86,208.86,0,0,0,891,481.47l2.25,1.29a10.87,10.87,0,0,1,2.19-7.84c1-1.24-.25-3.33-1.81-2.36a35.85,35.85,0,0,0-12.23,12.7,1.51,1.51,0,0,0,2,2.06,39.06,39.06,0,0,0,10-8.07l-2.56-1.06a33.3,33.3,0,0,1-1.64,7.58,1.51,1.51,0,0,0,2.2,1.69,177.17,177.17,0,0,0,16.72-13.07l-2.36-1.82a56.28,56.28,0,0,1-8.14,11.79l2.35,1.82q4.62-10.74,9.25-21.48c.45-1.05-.33-2.73-1.7-2.21-4.82,1.82-9.61,3.88-12.43,8.45a16.28,16.28,0,0,0-1.57,13.6c.63,1.82,3.53,1,2.9-.8a13.32,13.32,0,0,1,1.26-11.29c2.37-3.84,6.6-5.54,10.64-7.07-.57-.73-1.13-1.46-1.69-2.2q-4.64,10.74-9.25,21.48c-.61,1.43,1.11,3.2,2.36,1.82a59.64,59.64,0,0,0,8.61-12.4,1.5,1.5,0,0,0-2.35-1.81,169,169,0,0,1-16.12,12.6l2.21,1.7a37,37,0,0,0,1.75-8.38,1.51,1.51,0,0,0-2.56-1.06,36.5,36.5,0,0,1-9.36,7.6l2.05,2a32.7,32.7,0,0,1,11.15-11.63l-1.82-2.35a13.82,13.82,0,0,0-3.07,10,1.53,1.53,0,0,0,2.26,1.3,205.86,205.86,0,0,1,40.24-12.85l-1.46-2.51a97.85,97.85,0,0,1-33.57,19.24c.49.83,1,1.67,1.46,2.51a156.06,156.06,0,0,1,18.92-16.19c1.53-1.11.14-3.64-1.52-2.59l-15.81,10.11,1.82,2.35a85.27,85.27,0,0,1,16.55-10.26L917,471.82A26.3,26.3,0,0,1,900.25,483c-2.39.46-6.29.72-7.8-1.68-1.86-2.93,1.91-7.31,3.81-9.33a23.44,23.44,0,0,1,9.93-6.28l-1.69-2.21a50.47,50.47,0,0,1-10.56,13.27l2.35,1.82a46.77,46.77,0,0,1,6.49-8.76L900.43,468a22.35,22.35,0,0,1-12,9.62l1.84,1.84a57.82,57.82,0,0,1,14.53-23.54c1.41-1.4-.65-3.29-2.12-2.13-2.77,2.2-7.45,5.62-11,3.23a8,8,0,0,1-2.83-4.5c-.64-2.09-1-4.26-1.51-6.39Q884,431.05,880.62,416a1.52,1.52,0,0,0-2.51-.66,6.17,6.17,0,0,0-1.23,7.78c.6,1,2.55,1,2.75-.36A25.89,25.89,0,0,1,884,411.6h-2.59a6.94,6.94,0,0,1,1.18,4.82h2.9a3.84,3.84,0,0,1,.94-3.72l-2.56-1.06a29.28,29.28,0,0,1-2.59,12.77c-.6,1.3-1.49,3.9-3.35,3.46-1.7-.4-2.44-2.1-2.57-3.68a13.79,13.79,0,0,1,.15-3,6.74,6.74,0,0,1,.52-2.43c.51-.84,1.87-.53,2.7-.5l3.66.13,14.15.51a1.51,1.51,0,0,0,1.29-2.25,18.47,18.47,0,0,0-14.57-10.72,4.93,4.93,0,0,0-6.3,4.86c-.57,4.08-.95,8.19-1.41,12.29h3a10.79,10.79,0,0,1,1.88-6.79l-2.36.3a12.66,12.66,0,0,0,7.42,3.56l-1.5-1.5a26.26,26.26,0,0,1-4.37,13.54l2.74,1.16q1.63-10.47,3.26-20.95l-2.5.67a9.58,9.58,0,0,1,2.75,11.54h2.59a47.63,47.63,0,0,0-12.51-16.42c-1-.87-3.08-.08-2.5,1.46A14.31,14.31,0,0,0,888,418.87a1.54,1.54,0,0,0,1.45-1.9l-2.22-13.36c-.31-1.9-3.2-1.1-2.89.8Z" transform="translate(-323.31 -206.12)"/><path class="cls-7" d="M890.47,480.64a14.94,14.94,0,0,1,1.39,9,1.52,1.52,0,0,0,1.44,1.9c7.45-.1,13.94-7.12,13.16-14.6a1.51,1.51,0,0,0-2.25-1.3,104.5,104.5,0,0,0-9.12,6.82c-1.4,1.18-2.78,2.4-4.11,3.65-1,1-2.65,2.33-1.26,3.76,1.93,2,5.32-1,3.23-3.14a3.1,3.1,0,0,0-3.56-.4,4.51,4.51,0,0,0-1.5,1.54c-.36.57-.75,2-1.58,1.9l1.45,1.9a122.85,122.85,0,0,0,6-42.51l-2.94.4c4,10-3.25,21.46,2.64,31.11a1.52,1.52,0,0,0,2.74-.36,105.3,105.3,0,0,1,7.68-18.27l-2.8-.76a61.74,61.74,0,0,1-6.93,25.78l2.79.75a81.19,81.19,0,0,1,4.43-27.42l-2.74.36a26.81,26.81,0,0,1,1.63,16.85l2.94.4Q904,466,904.85,453.9c.1-1.43-2.19-2.11-2.8-.75q-2.44,5.52-4.91,11.05l2.74.36a24.94,24.94,0,0,1-.72-10.73h-2.9q2.65,6.9,5.29,13.81c.37.95,1.72,1.62,2.51.67a22.12,22.12,0,0,0,5.21-14.65,1.5,1.5,0,0,0-2.94-.4q-4.8,18.5-9.59,37l2.89.79,4.59-17.88h-2.89a59.12,59.12,0,0,1,1.78,21.23h3a165.13,165.13,0,0,1,9.81-45.68q2.31-6.29,5.14-12.35l-2.74-.36a56.33,56.33,0,0,1-1.54,23.32h2.89a42.63,42.63,0,0,1-3-21.5h-3q0,16.56,0,33.1l2.94-.4-6-23.12a1.52,1.52,0,0,0-2.9,0,25.81,25.81,0,0,0,3.46,23.09,1.52,1.52,0,0,0,2.8-.76,148,148,0,0,0-2.76-28.25,1.51,1.51,0,0,0-2.89,0,100.32,100.32,0,0,0-1.83,27.39,1.5,1.5,0,0,0,3,0,40.65,40.65,0,0,0-5.89-22.21,1.51,1.51,0,0,0-2.8.76,56.64,56.64,0,0,0,2.51,15.82,1.5,1.5,0,0,0,2.89-.8,61,61,0,0,0-7.11-18.32,1.51,1.51,0,0,0-2.74,1.16,50.66,50.66,0,0,0,13.12,21.59c1.4,1.37,3.18,3.16,5.34,2.61a4.1,4.1,0,0,0,2.8-3.7,30.57,30.57,0,0,0-.19-6.55c-.2-2.46-.45-4.92-.77-7.38a146.82,146.82,0,0,0-3.14-16.61,1.5,1.5,0,0,0-2.94.4l0,24.95c0,4.1,0,8.21,0,12.31,0,2.81.53,5.82,3.1,7.42A1.51,1.51,0,0,0,916,479a127.81,127.81,0,0,0-1-38.7c-.32-1.76-2.84-1.2-3,.39l-1.83,26.9,2.95-.4a63.88,63.88,0,0,0-8.37-19.43,1.52,1.52,0,0,0-2.8.76,34.19,34.19,0,0,0,2.29,14.08,8.65,8.65,0,0,0,3.43,4.54,3.54,3.54,0,0,0,4.61-.44l-2.51-.66a10.28,10.28,0,0,1-3.09,8.76l2.56,1.06A19.3,19.3,0,0,1,921.89,456c-.39-.91-.77-1.83-1.16-2.74L902.41,466.6c-.9.66-1.06,2.54.35,2.74,9.73,1.42,19.42-6.74,19.27-16.69a1.5,1.5,0,0,0-3,0,28.46,28.46,0,0,1-4.19,13.13,1.52,1.52,0,0,0,1.29,2.26,11.77,11.77,0,0,0,7.55-2.18c2-1.46,4.45-4.09,4.49-6.76.05-3.39-3.92-3.24-6.28-3.19a78.23,78.23,0,0,0-10.69,1l1.85,1.84a14.1,14.1,0,0,1,2.57-5.06c.61-.76,2.26-3.08,3.24-1.81s1.14,3.53,1.22,5.11a19,19,0,0,1-.74,6.32h2.89a11.68,11.68,0,0,1,.57-7.45c.76-1.76-1.82-3.28-2.59-1.52a15,15,0,0,0-.87,9.76,1.51,1.51,0,0,0,2.89,0,21.62,21.62,0,0,0,.71-8.69c-.29-2.24-.78-5.19-2.9-6.48-2.29-1.39-4.49.36-6,2a17.43,17.43,0,0,0-3.86,7,1.52,1.52,0,0,0,1.84,1.85,74.16,74.16,0,0,1,7.73-.8q1.92-.09,3.84-.09a4.12,4.12,0,0,1,1.31.08c.45.19.33.07.18.52-1.17,3.64-5.29,5.78-8.93,5.55.44.75.87,1.5,1.3,2.26a31.73,31.73,0,0,0,4.6-14.65h-3c.12,7.81-7.62,14.94-15.47,13.8l.36,2.74,18.32-13.33c1.27-.92.59-3.33-1.15-2.74a22.29,22.29,0,0,0-14.79,22.76,1.52,1.52,0,0,0,2.56,1.06,13.38,13.38,0,0,0,3.86-11.68,1.5,1.5,0,0,0-2.5-.66c-.67.73-1.89-.75-2.27-1.28a14.61,14.61,0,0,1-1.77-4.48,32,32,0,0,1-1.17-10.3l-2.79.76A61,61,0,0,1,910.28,468c.42,1.72,2.84,1.23,3-.4l1.83-26.9-2.95.4A125.19,125.19,0,0,1,913,479l2.26-1.3c-2.23-1.39-1.62-5.46-1.62-7.66V458.59l0-23-3,.4a141,141,0,0,1,3.93,25.1c.1,1.46.57,3.56-.07,4.95s-2.9-1.34-3.47-1.91a46.92,46.92,0,0,1-6.73-8.52,47.86,47.86,0,0,1-5-11.18l-2.74,1.16a58.34,58.34,0,0,1,6.81,17.6l2.89-.8a53.52,53.52,0,0,1-2.4-15l-2.79.75a37.71,37.71,0,0,1,5.48,20.7h3a97.32,97.32,0,0,1,1.72-26.6h-2.89A144.62,144.62,0,0,1,911,469.72l2.79-.76a22.94,22.94,0,0,1-3.15-20.78h-2.9l6,23.13a1.51,1.51,0,0,0,2.95-.4q0-16.55,0-33.1c0-2-2.78-1.86-3,0a44.54,44.54,0,0,0,3.14,22.3,1.51,1.51,0,0,0,2.89,0,60.08,60.08,0,0,0,1.54-24.92,1.51,1.51,0,0,0-2.74-.35,168.46,168.46,0,0,0-13.87,45.91q-1,6.78-1.49,13.63c-.14,1.94,2.81,1.89,3,0a61.31,61.31,0,0,0-1.89-22,1.51,1.51,0,0,0-2.89,0l-4.59,17.89a1.5,1.5,0,0,0,2.89.79q4.8-18.48,9.59-37l-3-.4a18.9,18.9,0,0,1-4.33,12.52l2.51.67q-2.66-6.92-5.29-13.82c-.47-1.21-2.64-1.62-2.9,0a28.55,28.55,0,0,0,.73,12.33c.32,1.13,2.19,1.59,2.74.35l4.92-11-2.8-.76Q901,466,900.22,478c-.11,1.68,2.57,2,2.95.4a30.17,30.17,0,0,0-1.93-19.17c-.57-1.27-2.36-.73-2.74.36A83.64,83.64,0,0,0,894,487.83a1.51,1.51,0,0,0,2.8.76,65,65,0,0,0,7.34-27.29,1.51,1.51,0,0,0-2.79-.75,109.49,109.49,0,0,0-8,19l2.74-.36c-2.74-4.49-2.11-9.9-1.57-14.89.56-5.15,1.2-10.56-.77-15.51-.58-1.46-3-1.43-3,.4a120.21,120.21,0,0,1-5.92,41.71,1.52,1.52,0,0,0,1.45,1.9,3.64,3.64,0,0,0,3.21-1.72c.34-.47.56-1,.87-1.5a6,6,0,0,1,.41-.58l.15,0q0-2.64,1.26-.51c-.15.35-.29.71-.44,1.06a99.4,99.4,0,0,1,14-11.27L903.46,477a10.72,10.72,0,0,1-10.16,11.6l1.45,1.89a18.42,18.42,0,0,0-1.69-11.33c-.86-1.72-3.45-.21-2.59,1.52Z" transform="translate(-323.31 -206.12)"/><path class="cls-7" d="M924.1,451.52c.21-.59,1.17-.58,1.64-.36,1,.47.91,1.87.64,2.73-.75,2.37-3.94,4.15-6.1,5-.89.35-2.06.59-2.77-.23a4.28,4.28,0,0,1-.58-2.68c0-2.14.3-4.29-.09-6.43-.75-4.1-4.55-6.47-8.39-7.22a20.88,20.88,0,0,0-6.36-.22c-2.27.28-4.93.75-5.05,3.56s1.18,6.05,2.44,8.53a24.06,24.06,0,0,0,5.57,7.14,1.48,1.48,0,0,0,1.45.39c3.61-1.32,5.65-4.78,6-8.5a18.93,18.93,0,0,0-1-7.23,22.26,22.26,0,0,0-2.38-5.9,5.39,5.39,0,0,0-8.82-.3c-2.53,3-1.64,7.1,1.16,9.56,4,3.53,9.39,2.84,14.25,2L914,449.16a20.54,20.54,0,0,0-3.43,8.49c-.14.87.38,2,1.44,1.9,5.64-.56,9.36-7.8,5.8-12.53l-1.69,2.2a53,53,0,0,1,12.25,4.44c.38-.92.77-1.83,1.15-2.74l-18.1-5.79a1.51,1.51,0,0,0-1.16,2.74,12,12,0,0,1,5.5,8.73c.69,4.24-.57,8.58-2.35,12.4a96,96,0,0,1-7,12.11q-4,6.15-8.62,11.9l2.51,1.46A172.71,172.71,0,0,1,909,476.14c.68-1.22-.76-3-2.05-2.05a130.92,130.92,0,0,0-23.58,21.27l2.35.3c-4.46-8.87,0-19.2,3.28-27.69s5.8-17.47,5.65-26.73a40,40,0,0,0-2.31-13.2c-1.63-4.38-4.23-8-7-11.66a27.16,27.16,0,0,1-3.59-5.95,23.05,23.05,0,0,1-1.49-7.3c-.07-1.17-.08-2.35-.06-3.53,0-.69-.2-2.41.46-2.88s2.24.17,2.9.35a16.24,16.24,0,0,1,2.7,1c8.21,3.91,12.89,12.77,16.84,20.51l1.7-2.2-16.88-5.32c-1.28-.41-2.63-.74-3.89-1.24-.67-.26-.77-.31-.58-1s.46-1.35.68-2l2.77-8.19c.55-1.63-1.91-2.61-2.74-1.15-2.82,4.9,1,10.2,5.12,12.86s10.32,3.22,13.4,7.63c.43-.75.86-1.5,1.3-2.25a12.5,12.5,0,0,1-10.55-4.83,11.71,11.71,0,0,1-2.34-5.53c-.34-2.34-.31-4.87-1.65-6.94a5.89,5.89,0,0,0-5.08-2.9,2.19,2.19,0,0,0-2.24,1.57,4.69,4.69,0,0,0,.2,3.07c1.81,4.54,7.48,4.2,11.3,5.89A21.39,21.39,0,0,1,904,416l1.7-2.21a20.87,20.87,0,0,1-8.71-6.84c-.6-.81-2.06-1.12-2.59,0a14.68,14.68,0,0,0-.55,11.55l2.51-1.46-11.88-10a1.51,1.51,0,0,0-2.51,1.46,13.62,13.62,0,0,0,5.4,7.85c1.13.82,2.48-.52,2.2-1.69L888.49,410l-1,1.85a2.78,2.78,0,0,0,2.13-2.84c0-1.56-1.08-2.45-2-3.51-1.64-1.83.54-4.51,2.68-4.43,2.59.1,5.15,3.23,5.13,5.76,0,1.31-1.39,1.3-2.28.74-1.25-.81-1.66-2.66-2.05-4l-.38,1.46c-.14-.06-.11-.07.08,0a2.62,2.62,0,0,1,.51.3,4.32,4.32,0,0,1,.9,1c.78,1.05,1.45,2.22,2.16,3.31,1.35,2.08,2.69,4.15,4,6.21l8.35,12.84q2,3.11,4,6.21c.7,1.07,1.7,2.58-.35,2.27-1.56-.23-2.3-1.53-3.14-2.71a9.31,9.31,0,0,0-4-3.57c-1.06-.43-2.18.84-1.84,1.85A43.47,43.47,0,0,0,910,447.76a1.52,1.52,0,0,0,2.51-.66,25,25,0,0,0,1.21-10.65c-.27-2.53-.84-6.35-4-6.84s-4.88,3.61-6,5.88a45.72,45.72,0,0,0-3.51,10.09h2.89q-.89-5.82-1.78-11.64c-.27-1.81-2.78-1.14-2.94.4-.14,1.34-.29,2.69-.43,4-.2,1.92,2.8,1.9,3,0,.14-1.35.29-2.7.43-4l-2.95.39q.88,5.82,1.78,11.65c.23,1.48,2.59,1.38,2.89,0a42.79,42.79,0,0,1,2.36-7.51c.53-1.25,1.13-2.47,1.78-3.66.33-.6,1.06-2.47,1.88-2.61,1.5-.25,1.64,4.82,1.67,5.65a22.94,22.94,0,0,1-1.24,8.05l2.51-.66a39.9,39.9,0,0,1-7.84-13.77l-1.85,1.85c1.48.6,2.32,2.38,3.23,3.58a6.6,6.6,0,0,0,3.79,2.67c3.38.77,6.42-1.78,4.73-5.25a57.29,57.29,0,0,0-3.81-6l-4-6.21-8.22-12.63c-1.53-2.35-5.69-10.95-9.57-7a1.5,1.5,0,0,0-.39,1.46c.85,2.94,2.25,6.21,5.73,6.52a4.2,4.2,0,0,0,3.6-1.37,5,5,0,0,0,.49-4.88,9.59,9.59,0,0,0-6-6.3,6.27,6.27,0,0,0-7.25,3,5,5,0,0,0,.7,6.29,7.19,7.19,0,0,1,1,1c.05.08.11.24.16.3.27.36-.44.13.09,0a1.53,1.53,0,0,0-1,1.85l1.11,4.72,2.2-1.7a10.48,10.48,0,0,1-4-6.06l-2.5,1.46,11.87,10c1,.86,3.1.08,2.51-1.46a11.66,11.66,0,0,1,.25-9.23h-2.59a24.72,24.72,0,0,0,10.5,8.22c1.31.55,2.21-1.17,1.69-2.21a24.09,24.09,0,0,0-10-10.28,26.58,26.58,0,0,0-6.9-2.47c-1.88-.43-5.68-1.46-4.62-4.17l-1,1.05c3.18-.92,3.69,4.13,3.92,6.1a15.3,15.3,0,0,0,2.63,7.41A15.48,15.48,0,0,0,904,418.7a1.51,1.51,0,0,0,1.29-2.26c-2.86-4.1-7.56-5.46-11.92-7.38-3.42-1.51-9.12-5.7-6.6-10.09L884,397.81q-1.62,4.79-3.23,9.56c-.44,1.3-.74,2.61.1,3.81s2.17,1.49,3.39,1.88L904,419.28a1.52,1.52,0,0,0,1.69-2.21c-3.85-7.55-8.32-15.65-15.67-20.34a21.52,21.52,0,0,0-5.66-2.55c-2.05-.58-4.7-1.13-6.2.82-1.35,1.78-1,4.71-1,6.81a30.34,30.34,0,0,0,1.09,7.76c1.45,4.93,4.88,8.58,7.72,12.72a32.47,32.47,0,0,1,5.16,13.2c1.54,9.55-.56,19.5-3.86,28.46-3.82,10.41-9.67,22.33-4.19,33.22a1.51,1.51,0,0,0,2.36.31,128.18,128.18,0,0,1,23-20.8l-2-2.05a178.08,178.08,0,0,0-9,19c-.56,1.36,1.59,2.6,2.5,1.46a153.9,153.9,0,0,0,14-20.53c3.54-6.28,6.47-13.62,4.28-20.87a14.41,14.41,0,0,0-6.4-8.45L910.58,448l18.1,5.79c1.61.51,2.68-2,1.16-2.74a56.49,56.49,0,0,0-13-4.74c-1.14-.26-2.53,1.08-1.69,2.2,2,2.72.42,7.66-3.21,8l1.45,1.9a18.47,18.47,0,0,1,3.13-7.77c.82-1.18-.53-2.41-1.69-2.2-3.75.66-8.37,1.49-11.48-1.33a4.27,4.27,0,0,1-1.6-4,3.42,3.42,0,0,1,2.83-2.49c1.67-.08,2.42,1.88,2.9,3.18a35.84,35.84,0,0,1,1.84,6.25c.55,3.19-.17,7.55-3.64,8.82l1.46.39a21.66,21.66,0,0,1-5.27-6.89,20.86,20.86,0,0,1-1.42-3.92,14.47,14.47,0,0,1-.42-2.06c-.09-.86.09-.87.92-1,3.71-.78,9.12-.64,11.81,2.48,2.93,3.41-.24,8.56,2.06,12.28,1.48,2.38,4.41,2.51,6.76,1.49,2.56-1.1,5.57-2.92,7-5.39s1.37-6-1.24-7.55a4.22,4.22,0,0,0-6.17,2.07c-.62,1.83,2.27,2.62,2.89.8Z" transform="translate(-323.31 -206.12)"/><path class="cls-7" d="M900,403.89c2,4.31,3.83,8.67,5.89,12.94a12.83,12.83,0,0,0,3.81,4.88c1.56,1.17,3.32,2,5,3A37.78,37.78,0,0,1,929.27,442a1.55,1.55,0,0,0,1.85,1,1.51,1.51,0,0,0,1-1.84,41.46,41.46,0,0,0-14.39-18c-1.58-1.11-3.26-2-4.92-3a10.27,10.27,0,0,1-4.22-4.53c-2.19-4.35-4.06-8.89-6.08-13.33-.79-1.75-3.38-.23-2.59,1.52Z" transform="translate(-323.31 -206.12)"/><path class="cls-7" d="M905.81,416.4c3.74.23,6.78,3,8.52,6.16,2.15,3.9,2.57,8.51,3,12.85.18,1.9,3.19,1.92,3,0-.5-5.07-1-10.43-3.71-14.89-2.34-3.87-6.2-6.84-10.81-7.12-1.93-.12-1.92,2.88,0,3Z" transform="translate(-323.31 -206.12)"/><path class="cls-7" d="M915.22,421c5.07-.09,8.44,5.42,11,9a165,165,0,0,1,9.49,14.79,1.5,1.5,0,0,0,2.59-1.51A165.61,165.61,0,0,0,927.76,427c-3.06-4.15-6.82-9.12-12.54-9-1.93,0-1.93,3,0,3Z" transform="translate(-323.31 -206.12)"/><path class="cls-7" d="M919.71,423.29l4.56,10.8,2.19,5.21c.37.87,1.73,3.16.36,3.72-1.14.46-2.44-.29-3.38-.85a12.22,12.22,0,0,0-4-1.88c-2.7-.48-6.13,1.8-5.14,4.82l2.51-1.46a7.71,7.71,0,0,1-2-6.28,1.51,1.51,0,0,0-1.5-1.5,1.53,1.53,0,0,0-1.5,1.5,10.57,10.57,0,0,0,2.89,8.4,1.51,1.51,0,0,0,2.51-1.46c-.37-1.13,1.69-1.14,2.4-.86,1.33.52,2.44,1.5,3.74,2.08,2.37,1,5.83.81,6.81-2,.6-1.74-.15-3.43-.82-5l-2.19-5.2-4.56-10.81a1.56,1.56,0,0,0-1.84-1.05,1.51,1.51,0,0,0-1,1.85Z" transform="translate(-323.31 -206.12)"/><path class="cls-7" d="M906.51,426.27l3.81,12.14,2.74-1.16-4.63-9.52c-.6-1.23-2.37-.78-2.74.36a30.3,30.3,0,0,0-1.32,12.51c.2,1.88,3,2,3,0l0-10.91h-3a145.52,145.52,0,0,1-.43,19.14l2.94-.39-3-10.3a1.51,1.51,0,0,0-1.84-1.05,6.39,6.39,0,0,0-4.54,6.16c0,1.62,2.68,2.12,2.95.4Q902.22,432,904,420.33l-2.74.36a60.18,60.18,0,0,0,15.82,19.64,1.51,1.51,0,0,0,2.36-1.82q-3.94-8.5-7.9-17c-.7-1.52-3.33-.44-2.74,1.16q3.06,8.22,6.11,16.45L917.7,438q-5.49-8.49-11-17l-2.6,1.51A61.6,61.6,0,0,0,921,438.38c1.66,1.06,3-1.47,1.51-2.59a40.82,40.82,0,0,1-9.78-10.27l-2,2.05a10.26,10.26,0,0,1,5,7.23l2.74-1.16a49.32,49.32,0,0,1-5.13-11.43c-.47-1.54-3.11-1.35-3,.4a46.91,46.91,0,0,1-4.56,25.3h2.59a16.7,16.7,0,0,1-3.19-12.47l-2.74.36,1.66,3a1.5,1.5,0,0,0,2.35.31,12.36,12.36,0,0,0,2.88-9.08c-.19-1.9-3.19-1.92-3,0a9.39,9.39,0,0,1-2,7l2.36.3-1.66-3c-.58-1.05-2.54-1-2.74.36a19.61,19.61,0,0,0,3.49,14.78,1.52,1.52,0,0,0,2.59,0,49.92,49.92,0,0,0,5-26.82l-2.94.4a52.47,52.47,0,0,0,5.43,12.14,1.5,1.5,0,0,0,2.74-1.15,13.14,13.14,0,0,0-6.41-9c-1.25-.72-2.91.76-2.05,2A44.74,44.74,0,0,0,921,438.38c.5-.86,1-1.72,1.51-2.59A57.61,57.61,0,0,1,906.73,421c-1.12-1.53-3.66-.14-2.6,1.51l11,17c.87,1.35,3.36.52,2.74-1.15q-3.06-8.24-6.11-16.46L909,423q3.94,8.5,7.9,17l2.35-1.82a58,58,0,0,1-15.35-19,1.51,1.51,0,0,0-2.74.36q-1.83,11.65-3.65,23.31l2.94.4a3.34,3.34,0,0,1,2.34-3.27l-1.85-1.05,3,10.3a1.51,1.51,0,0,0,2.95-.4,145.52,145.52,0,0,0,.43-19.14,1.5,1.5,0,0,0-3,0l0,10.91h3a28.21,28.21,0,0,1,1.21-11.72l-2.74.36q2.31,4.77,4.63,9.53c.74,1.52,3.25.45,2.74-1.16l-3.81-12.14c-.57-1.84-3.47-1.05-2.89.8Z" transform="translate(-323.31 -206.12)"/><path class="cls-7" d="M906.82,419.25a41.28,41.28,0,0,0,11.08,15.87L920,433a33.56,33.56,0,0,1-7.42-8.6,29.84,29.84,0,0,1-2.48-5.12c-.2-.52-.23-.44.32-.36a3.85,3.85,0,0,1,1.7.76,27.86,27.86,0,0,1,6.7,8.28,35.45,35.45,0,0,1,3.88,10,33.39,33.39,0,0,1,.45,12h2.9a38.64,38.64,0,0,1-2-14.78c.11-1.93-2.89-1.92-3,0a41,41,0,0,0,2.11,15.58c.43,1.25,2.66,1.59,2.9,0a37.63,37.63,0,0,0-9-30.48,14.31,14.31,0,0,0-4.52-3.9c-1.55-.68-3.68-1-4.87.52-1.43,1.77-.09,4.14.73,5.88a35.59,35.59,0,0,0,9.51,12.26c1.47,1.21,3.59-.83,2.12-2.12a38,38,0,0,1-10.3-14.55c-.71-1.78-3.61-1-2.9.8Z" transform="translate(-323.31 -206.12)"/><path class="cls-7" d="M917.5,435.29c.49,4.26,2.67,7.8,4.72,11.47,1.9,3.37,3.92,7.76,2.15,11.6l2.74.36a81.4,81.4,0,0,1-1-18.64c.11-1.77-2.41-1.91-2.94-.4a21.29,21.29,0,0,0-1.18,8.37,1.52,1.52,0,0,0,1.9,1.45c.83-.32,3-1.18,3.63-.17.81,1.2-1.08,2.41-2,2.55-3.13.46-5.29-2.24-6.07-4.93-1.06-3.68-.92-7.78-1.17-11.58q-.4-6.45-.83-12.91l-2.56,1.06q8.42,10.43,16,21.49a1.51,1.51,0,0,0,2.74-1.15,55.1,55.1,0,0,0-6.65-15.56c-1-1.64-3.62-.13-2.59,1.51a52.85,52.85,0,0,1,6.35,14.84l2.74-1.15q-7.78-11.37-16.43-22.1a1.52,1.52,0,0,0-2.57,1.06q.45,6.82.88,13.66c.26,4,.11,8.37,1.41,12.2,1.06,3.11,3.29,5.77,6.64,6.42,3,.58,6.46-.68,7.19-3.93a3.87,3.87,0,0,0-2.11-4.47,7,7,0,0,0-5.33.27l1.9,1.44a19.12,19.12,0,0,1,1.07-7.57l-2.95-.4a84.42,84.42,0,0,0,1.11,19.44,1.51,1.51,0,0,0,2.74.35c1.89-4.1.9-8.46-1-12.39s-5-7.66-5.49-12.19c-.21-1.89-3.22-1.91-3,0Z" transform="translate(-323.31 -206.12)"/><path class="cls-7" d="M914.58,419.25c-.77,11.79,13,17.33,15.11,28.11.37,1.89,3.27,1.09,2.89-.8-1.07-5.47-4.94-9.75-8.45-13.86-3.27-3.83-6.9-8.09-6.55-13.45.13-1.93-2.87-1.92-3,0Z" transform="translate(-323.31 -206.12)"/><path class="cls-7" d="M917.39,428.71c6.48,4,15.48,9.87,14.16,18.81l2.2-.89a17.07,17.07,0,0,1-7.16-13.93l-2.8.76a15.71,15.71,0,0,1,3.13,11.09l2.56-1.06a46.51,46.51,0,0,1-12.76-26.13c-.2-1.47-2.63-1.4-2.89,0a14,14,0,0,0,2,10.44c1.07,1.6,3.67.1,2.59-1.51a11,11,0,0,1-1.73-8.14h-2.89a49,49,0,0,0,13.53,27.46,1.52,1.52,0,0,0,2.56-1.06,18.21,18.21,0,0,0-3.53-12.6,1.51,1.51,0,0,0-2.8.75,20.17,20.17,0,0,0,8.65,16.52,1.51,1.51,0,0,0,2.2-.9,16.84,16.84,0,0,0-3.92-13c-3.1-3.9-7.43-6.6-11.61-9.19-1.65-1-3.15,1.57-1.52,2.59Z" transform="translate(-323.31 -206.12)"/></g><g id="Layer_2_copy" data-name="Layer 2 copy"><path class="cls-11" d="M764.4,562.28V536.42a16,16,0,0,0-16-16H718V490a16,16,0,0,0-16-16H676.18a16,16,0,0,0-16,16v30.42H629.79a16,16,0,0,0-16,16v25.86a16,16,0,0,0,16,16h30.42v30.42a16,16,0,0,0,16,16H702a16,16,0,0,0,16-16V578.25h30.42A16,16,0,0,0,764.4,562.28Zm-12.17,0a3.8,3.8,0,0,1-3.8,3.8H711.92a6.09,6.09,0,0,0-6.08,6.09v36.5a3.81,3.81,0,0,1-3.8,3.81H676.18a3.81,3.81,0,0,1-3.8-3.81v-36.5a6.09,6.09,0,0,0-6.09-6.09h-36.5a3.8,3.8,0,0,1-3.8-3.8V536.42a3.8,3.8,0,0,1,3.8-3.8h36.5a6.09,6.09,0,0,0,6.09-6.08V490a3.8,3.8,0,0,1,3.8-3.8H702a3.8,3.8,0,0,1,3.8,3.8v36.51a6.08,6.08,0,0,0,6.08,6.08h36.51a3.8,3.8,0,0,1,3.8,3.8Z" transform="translate(-323.31 -206.12)"/><path class="cls-11" d="M596.75,627.35H574.69a4.57,4.57,0,0,0,0,9.13h22.06a4.57,4.57,0,0,0,0-9.13Z" transform="translate(-323.31 -206.12)"/><path class="cls-11" d="M787.64,631.92a4.58,4.58,0,0,0-4.57-4.57H758.32a4.57,4.57,0,1,0,0,9.13h24.75A4.57,4.57,0,0,0,787.64,631.92Z" transform="translate(-323.31 -206.12)"/><path class="cls-11" d="M507.54,757.71a12.3,12.3,0,0,0,12.28-12.28V698.48a12.28,12.28,0,0,0-24.56,0v46.95A12.3,12.3,0,0,0,507.54,757.71Zm-3.16-59.23a3.16,3.16,0,0,1,6.32,0v46.95a3.2,3.2,0,0,1-3.16,3.15,3.16,3.16,0,0,1-3.16-3.15Z" transform="translate(-323.31 -206.12)"/><path class="cls-11" d="M779.2,717.39a12.3,12.3,0,0,0-12.29,12.28v37.77a12.29,12.29,0,0,0,24.57,0V729.67A12.3,12.3,0,0,0,779.2,717.39Zm3.15,50.05a3.16,3.16,0,1,1-6.31,0V729.67a3.16,3.16,0,0,1,6.31,0Z" transform="translate(-323.31 -206.12)"/><path class="cls-11" d="M570,835.22a12.3,12.3,0,0,0,12.28-12.28V799.47a12.29,12.29,0,1,0-24.57,0v23.47A12.3,12.3,0,0,0,570,835.22Zm-3.16-35.75a3.16,3.16,0,1,1,6.31,0v23.47a3.16,3.16,0,0,1-6.31,0Z" transform="translate(-323.31 -206.12)"/><path class="cls-11" d="M851.4,682.53a12.3,12.3,0,0,0-12.29,12.28v23.47a12.29,12.29,0,0,0,24.57,0V694.81A12.3,12.3,0,0,0,851.4,682.53Zm3.15,35.75a3.2,3.2,0,0,1-3.15,3.16,3.16,3.16,0,0,1-3.16-3.16V694.81a3.16,3.16,0,0,1,3.16-3.16,3.2,3.2,0,0,1,3.15,3.16Z" transform="translate(-323.31 -206.12)"/><path class="cls-11" d="M604.46,732.49a12.3,12.3,0,0,0,12.29-12.28V692.88a12.29,12.29,0,0,0-24.57,0v27.33A12.3,12.3,0,0,0,604.46,732.49Zm-3.15-39.61a3.16,3.16,0,1,1,6.31,0v27.33a3.16,3.16,0,1,1-6.31,0Z" transform="translate(-323.31 -206.12)"/><path class="cls-11" d="M894.38,749.21a12.3,12.3,0,0,0-12.29,12.28v27.34a12.29,12.29,0,0,0,24.57,0V761.49A12.3,12.3,0,0,0,894.38,749.21Zm3.15,39.62a3.16,3.16,0,0,1-6.31,0V761.49a3.16,3.16,0,0,1,6.31,0Z" transform="translate(-323.31 -206.12)"/><path class="cls-11" d="M981.76,735.9c0-.1,0-.21-.08-.36-1.25-5.8-1.87-10.55-1-16.48,0-.16.07-.31.11-.47V649.06h.2c0-.14,0-.27,0-.41a13.08,13.08,0,0,1,.31-2.81c0-.28,0-.56,0-.84s0-.58,0-.86,0-.47,0-.71h0a13.15,13.15,0,0,1-.26-2.59c0-.3,0-.59,0-.89s0-.62,0-.94a12.26,12.26,0,0,1,.19-2.11h-.37V567.6c0-4.6-.13-9.13-.31-13.64h.37a33,33,0,0,0-.14-5.75c0-.07,0-.14,0-.21a13.17,13.17,0,0,1-.79-4.49,13.33,13.33,0,0,1,.1-1.56h-.27c-3.26-41.51-14.62-78.3-33.83-109.77a13.81,13.81,0,0,1-4.81-2.38,33.94,33.94,0,0,1-6.55,6.23,14,14,0,0,1,2,4.63l.18-.27c21.15,35.51,31.88,78.25,31.88,127.21V773.34A192.85,192.85,0,0,1,951,854.24L893.14,980.31a6.13,6.13,0,0,0-.55,2.53V1154.3a37,37,0,0,0-13.69-2.62,35.27,35.27,0,0,0-28.14,13.42,36.21,36.21,0,0,0-56.28,0,35.27,35.27,0,0,0-28.14-13.42,36.13,36.13,0,0,0-22.05,7.35v-82.67L808,1012.62a14.89,14.89,0,0,0,8.85.62,15,15,0,1,0-18.07-18.07,14.86,14.86,0,0,0,.62,8.84l-55.14,55.14V886L808,822.25a14.89,14.89,0,0,0,8.85.62,15,15,0,1,0-18.07-18.07,14.86,14.86,0,0,0,.62,8.84l-55.14,55.14V664.14h37.17c.1,4,.26,8.7.48,14.44a6.11,6.11,0,0,0,4.84,5.74,89.55,89.55,0,0,0,17.67,2.16c12.92,0,14.31-5.24,14.87-7.31.83-3.1-.13-8.86-1.77-15h104.9a6.09,6.09,0,0,0,5.95-4.82c.3-1.43,7.21-35.29-9.07-55.67-6.32-7.93-15.11-12.69-26.19-14.21,1.85-12.32,3.5-38.21-10.67-57.4-9.08-12.3-22.9-19.6-41.14-21.76.52-9.48.3-27.8-7-43.7,3.23-3.91,6.56-8.12,7.41-9.82,3.06-6.11-3.21-11.17-12.39-17.65-5.79-4.08-11.66-7.72-11.91-7.87a6.08,6.08,0,0,0-8.08,1.55l-5.28,7.12c-9.56-2.71-20.77-2.89-33.48-.5-5.72-13.34-24-48-57.65-45.49-24.25,1.81-36.93,16.24-42.31,28.15-12.83-8.52-34.41-15.84-56.08-3.06-28.48,16.79-30.45,40.36-28.91,53.39-10.31-1-27.18-.64-40.47,9.62-11.29,8.72-17.53,22.52-18.58,41.09a48.1,48.1,0,0,0-19.05,6.13c-5.55-3.63-12.21-8-20.27-13.11a6,6,0,0,0-2-.86,6.13,6.13,0,0,0-6.93,3.51c0,.09-3.93,9-7.62,18-8.12,19.77-8.61,22.15-5.3,25.46.95,1,1.87,1.86,22,8.79a91.77,91.77,0,0,0,.81,10.66c-12.53,4.48-40.17,20.67-40.18,76.31a6.11,6.11,0,0,0,6.09,6.11H732.12V793.75L677,738.6a14.83,14.83,0,0,0,.62-8.83,15,15,0,1,0-18.07,18.06,14.86,14.86,0,0,0,8.84-.62L732.12,811V984.12L677,929a14.83,14.83,0,0,0,.62-8.83,15,15,0,1,0-18.08,18.06,14.93,14.93,0,0,0,8.86-.62l63.74,63.74V1159a36.13,36.13,0,0,0-22-7.35,35.27,35.27,0,0,0-28.14,13.42,36.21,36.21,0,0,0-56.28,0,35.28,35.28,0,0,0-28.14-13.42,37.15,37.15,0,0,0-12.75,2.26V1028.69A40.78,40.78,0,0,0,544,987.91H431.34A32.32,32.32,0,0,1,399,955.59V833a6.09,6.09,0,0,0-4.41-5.85l-58.67-16.85,54.65-94.41a6.07,6.07,0,0,0,.82-3V581.48c.23-3.5,4.85-66.45,39.37-128.41,46.45-83.37,122.65-126.15,226.49-127.26l-.09.43.6,0a11.16,11.16,0,0,1,1.42.09,101.83,101.83,0,0,1,9.28-2.7,12.76,12.76,0,0,1,1.75.13c.84-3.7,2.1-9.27,2.09-9.27-4.06-.2-8.13-.56-12.2-1l0,.16c-60.31.2-112.62,14.26-155.49,41.83-34.09,21.92-62.22,52.33-83.68,90.38l-.32-.12a13.72,13.72,0,0,1-2.34,5.1,14,14,0,0,1-3.83,5.64c.21.07.44.14.64.22a344.16,344.16,0,0,0-27.19,73.09,13.67,13.67,0,0,1,.17,2,13.42,13.42,0,0,1-2,7,13.56,13.56,0,0,1-1.21,3.86h.07c-4.68,22.19-5.59,37-5.66,38.33,0,.11,0,.22,0,.33V711.23l-54.41,94a11.28,11.28,0,0,0,6.63,16.48l55.39,15.91v118a44.49,44.49,0,0,0,44.49,44.49H544a28.61,28.61,0,0,1,28.62,28.61v132.83a30.23,30.23,0,0,0-8.66,15.18H526.76a6.24,6.24,0,0,0-6.27,5.32,6.09,6.09,0,0,0,6,6.85h42.84a6.12,6.12,0,0,0,6.08-6.18c.06-10.4,9.93-18.84,22.06-18.84s21.91,8.37,22,18.7a6.28,6.28,0,0,0,5.18,6.25,6.08,6.08,0,0,0,7-6c0-10.44,9.9-18.93,22.06-18.93s21.91,8.37,22.05,18.7a6.27,6.27,0,0,0,5.17,6.25,6.09,6.09,0,0,0,7-6c0-10.44,9.89-18.93,22.06-18.93s21.9,8.37,22,18.7a6.27,6.27,0,0,0,5.17,6.25,6.09,6.09,0,0,0,7-6c0-10.44,9.89-18.93,22.05-18.93s21.91,8.37,22.06,18.7a6.27,6.27,0,0,0,5.17,6.25,6.09,6.09,0,0,0,7-6c0-10.44,9.89-18.93,22-18.93s21.91,8.37,22,18.7a6.28,6.28,0,0,0,5.18,6.25,6.08,6.08,0,0,0,7-6c0-10.44,9.9-18.93,22.06-18.93s22,8.44,22.05,18.84a6.13,6.13,0,0,0,6.09,6.18h42.61a6.25,6.25,0,0,0,6.27-5.32,6.09,6.09,0,0,0-6-6.85H912.47a30.08,30.08,0,0,0-7.71-14.27V984.17L962,859.32a204.89,204.89,0,0,0,18.78-86V752.61a13.74,13.74,0,0,1-.08-1.44c0-.37,0-.73.07-1.09a18.16,18.16,0,0,1-.1-6.5c.24-1.48.8-4.56.92-5.43,0,.14.12-1.7.13-2S981.76,736,981.76,735.9ZM813.44,992.7a5.91,5.91,0,1,1-5.91,5.9A5.91,5.91,0,0,1,813.44,992.7Zm0-190.37a5.91,5.91,0,1,1-5.91,5.9A5.91,5.91,0,0,1,813.44,802.33ZM663,739.1a5.91,5.91,0,1,1,5.91-5.9A5.91,5.91,0,0,1,663,739.1Zm0,190.38a5.91,5.91,0,1,1,5.91-5.91A5.92,5.92,0,0,1,663,929.48ZM793.92,673.24c-.16-5.33-.28-10.74-.32-15.08,0,0,0-.06,0-.1s0-.08,0-.12c0-2.32,0-4.33,0-5.82,1.85-.72,4.29-1.6,6.27-2.24,2.6,6.1,6.65,18.63,7.47,24.31A66.18,66.18,0,0,1,793.92,673.24Zm21.85-228.65A149.07,149.07,0,0,1,828.89,454c-1.62,2.07-3.94,4.91-6.5,7.93l0,0c-5,5.85-10.8,12.41-14.17,15.65-2.42-2.14-6.12-5.92-9.66-9.77ZM476.92,554.38c1.9-5.3,5.78-14.81,9.77-24.17,16.11,10.39,32.24,21.1,37.37,25a75.33,75.33,0,0,1-4.8,13.44C510.23,566.05,486.7,558,476.92,554.38ZM738.24,652H460.41a114.58,114.58,0,0,1,1.66-15.5h71.56a4.57,4.57,0,0,0,0-9.13H464.18c9-31.05,30.72-35,31.84-35.2a6.08,6.08,0,0,0,5.11-7.12,93.54,93.54,0,0,1-1.29-9.79c15.83,5.27,20.2,6.33,22.19,6.33a5.42,5.42,0,0,0,1.41-.2c2.5-.63,4.74-1.94,8.93-12.44,6-14.92,3.93-18.1,2.84-19.8-.54-.86-1.5-2.34-15.81-12A38.39,38.39,0,0,1,532.18,535a6.09,6.09,0,0,0,6.44-6.08c0-17.51,4.69-30,14-37.23,15.39-11.94,39.09-6,39.31-6a6.08,6.08,0,0,0,7.22-8.07c-.45-1.17-10.72-29.07,21.64-48.15,25.22-14.87,47.83,6.24,48.77,7.14a6.1,6.1,0,0,0,10.21-3.32c.19-1,4.92-25.07,34.14-27.26,31.42-2.35,47.07,41.91,47.22,42.35a6.09,6.09,0,0,0,7.14,4c10.67-2.5,20-3.08,27.95-1.76l-10.39,14a6.09,6.09,0,0,0,.32,7.64c16.52,18.8,20,18.8,22.32,18.8,2.54,0,4.59,0,17-14,5.94,17.75,3.34,37.73,3.31,38a6.07,6.07,0,0,0,5.71,6.9c17.53.92,30.39,6.75,38.22,17.33,15.43,20.84,7.43,54,7.35,54.28a6.08,6.08,0,0,0,5.8,7.57c10.83.16,18.68,3.48,24,10.13,3.68,4.59,5.78,10.32,6.93,16.14H823.91a4.57,4.57,0,0,0,0,9.13h93.91a91.47,91.47,0,0,1-.58,15.5H813.69a82.58,82.58,0,0,0-4.83-11.37,7.28,7.28,0,0,0-4.62-3.56c-4.73-1-18.7,5.23-19.6,5.83-1.89,1.26-2.93,2-3.21,9.1Z" transform="translate(-323.31 -206.12)"/><path class="cls-11" d="M942.44,430.68a14.15,14.15,0,0,1-5.06-5.19c-48.33-48.86-99.24-82.75-151.42-100.7-42-14.44-84.73-18.63-127.18-12.51a13.38,13.38,0,0,1-1.61.68l3.09,12.6,1.68-.25a13.45,13.45,0,0,1,6.54-1.71,13.78,13.78,0,0,1,3.28.42c89.72-10,176.69,27.16,258.77,110.68l-.37.19.52.49a20.27,20.27,0,0,1,2.27,2.85c.86.76,1.69,1.54,2.49,2.36a46.78,46.78,0,0,1,4.32,5.17s10.68-5.68,10.66-5.69C947.7,437,945.05,433.87,942.44,430.68Z" transform="translate(-323.31 -206.12)"/></g></svg>